<svg xmlns="http://www.w3.org/2000/svg" viewBox="0 0 21.332 21.332">
  <defs>
    <style>
      .cls-1 {
        fill: #bfc5d1;
      }
    </style>
  </defs>
  <path id="ic-setting" class="cls-1" d="M9.576,21.332a1.431,1.431,0,0,1-1.43-1.43V18.35a8.05,8.05,0,0,1-1.131-.47l-1.1,1.1a1.431,1.431,0,0,1-2.022,0L2.353,17.437a1.431,1.431,0,0,1,0-2.022l1.1-1.1a8.058,8.058,0,0,1-.47-1.131H1.43A1.431,1.431,0,0,1,0,11.756V9.576a1.431,1.431,0,0,1,1.43-1.43H2.982a8.062,8.062,0,0,1,.47-1.131l-1.1-1.1a1.431,1.431,0,0,1,0-2.022L3.895,2.353a1.432,1.432,0,0,1,2.022,0l1.1,1.1a8.041,8.041,0,0,1,1.131-.47V1.43A1.431,1.431,0,0,1,9.576,0h2.18a1.431,1.431,0,0,1,1.43,1.43V2.982a8.056,8.056,0,0,1,1.131.47l1.1-1.1a1.432,1.432,0,0,1,2.022,0l1.541,1.541a1.432,1.432,0,0,1,0,2.022l-1.1,1.1a8.057,8.057,0,0,1,.469,1.131H19.9a1.431,1.431,0,0,1,1.43,1.43v2.18a1.431,1.431,0,0,1-1.43,1.43H18.349a8.057,8.057,0,0,1-.469,1.131l1.1,1.1a1.432,1.432,0,0,1,0,2.022l-1.541,1.541a1.432,1.432,0,0,1-2.022,0l-1.1-1.1a8.052,8.052,0,0,1-1.131.469V19.9a1.432,1.432,0,0,1-1.43,1.43ZM7.144,16.986a7.2,7.2,0,0,0,1.543.64A.425.425,0,0,1,9,18.035V19.9a.581.581,0,0,0,.58.58h2.18a.581.581,0,0,0,.58-.58V18.035a.425.425,0,0,1,.309-.409,7.193,7.193,0,0,0,1.543-.64.425.425,0,0,1,.508.071l1.321,1.321a.581.581,0,0,0,.82,0l1.541-1.541a.581.581,0,0,0,0-.82L17.057,14.7a.424.424,0,0,1-.07-.508,7.2,7.2,0,0,0,.64-1.543.425.425,0,0,1,.409-.309H19.9a.58.58,0,0,0,.58-.58V9.576A.58.58,0,0,0,19.9,9H18.035a.425.425,0,0,1-.409-.309,7.216,7.216,0,0,0-.64-1.543.424.424,0,0,1,.07-.508l1.321-1.321a.581.581,0,0,0,0-.82L16.836,2.954a.581.581,0,0,0-.82,0L14.7,4.275a.425.425,0,0,1-.508.071,7.191,7.191,0,0,0-1.543-.64.425.425,0,0,1-.309-.409V1.43a.581.581,0,0,0-.58-.58H9.576A.581.581,0,0,0,9,1.43V3.3a.425.425,0,0,1-.309.409,7.2,7.2,0,0,0-1.543.64.425.425,0,0,1-.508-.071L5.316,2.954a.581.581,0,0,0-.82,0L2.954,4.5a.581.581,0,0,0,0,.82L4.275,6.636a.425.425,0,0,1,.07.508,7.191,7.191,0,0,0-.64,1.543A.425.425,0,0,1,3.3,9H1.43a.581.581,0,0,0-.58.58v2.18a.581.581,0,0,0,.58.58H3.3a.425.425,0,0,1,.409.309,7.191,7.191,0,0,0,.64,1.543.425.425,0,0,1-.071.508L2.954,16.016a.58.58,0,0,0,0,.82L4.5,18.377a.581.581,0,0,0,.82,0l1.321-1.321a.425.425,0,0,1,.508-.07Zm-.881-6.32a4.4,4.4,0,1,1,4.4,4.4A4.408,4.408,0,0,1,6.263,10.666Zm.85,0a3.553,3.553,0,1,0,3.553-3.553A3.557,3.557,0,0,0,7.113,10.666Zm-2.4,0A5.95,5.95,0,0,1,8.149,5.274a.425.425,0,1,1,.36.77,5.122,5.122,0,0,0-2.942,4.622.425.425,0,0,1-.85,0Zm7.989-4.675a5.065,5.065,0,0,0-2.04-.424.425.425,0,0,1,0-.85,5.907,5.907,0,0,1,2.38.5.425.425,0,1,1-.34.779Z" transform="translate(0 0)"/>
</svg>
